<svg xmlns="http://www.w3.org/2000/svg" viewBox="0 0 64 64" role="img" aria-label="KabelNet">
  <rect width="64" height="64" rx="16" fill="#2f7d75"/>
  <path d="M18 22h28a6 6 0 0 1 6 6v14a6 6 0 0 1-6 6H18a6 6 0 0 1-6-6V28a6 6 0 0 1 6-6Z" fill="#ffffff"/>
  <path d="M24 18 32 10l8 8" fill="none" stroke="#ffffff" stroke-width="5" stroke-linecap="round" stroke-linejoin="round"/>
  <circle cx="32" cy="35" r="4" fill="#d59b4a"/>
  <path d="M23 35a13 13 0 0 1 18 0M17 30a21 21 0 0 1 30 0" fill="none" stroke="#2f7d75" stroke-width="3" stroke-linecap="round"/>
</svg>
