<svg xmlns="http://www.w3.org/2000/svg" viewBox="0 0 1440 760" preserveAspectRatio="xMidYMid slice" role="img" aria-label="Сеть кабельного телевидения и интернета">
  <defs>
    <linearGradient id="bg" x1="0" x2="1" y1="0" y2="1">
      <stop offset="0" stop-color="#e9f5f3"/>
      <stop offset="0.55" stop-color="#f7faf9"/>
      <stop offset="1" stop-color="#f8f3e8"/>
    </linearGradient>
    <filter id="soft" x="-20%" y="-20%" width="140%" height="140%">
      <feDropShadow dx="0" dy="18" stdDeviation="22" flood-color="#163832" flood-opacity=".16"/>
    </filter>
  </defs>
  <rect width="1440" height="760" fill="url(#bg)"/>
  <path d="M822 169c126 38 242 98 352 179 64 48 129 106 184 179v233H0V489c90-53 192-81 297-82 131-1 258 39 384 22 125-17 241-101 141-260Z" fill="#dcefeb"/>
  <g opacity=".28" fill="none" stroke="#2f7d75" stroke-width="3">
    <path d="M812 213c131 34 254 94 368 180M730 306c166 29 316 93 454 197M665 410c158-15 314 14 464 93"/>
  </g>
  <g filter="url(#soft)">
    <rect x="785" y="132" width="420" height="278" rx="28" fill="#ffffff"/>
    <rect x="815" y="164" width="360" height="196" rx="18" fill="#163832"/>
    <rect x="846" y="196" width="118" height="132" rx="14" fill="#2f7d75"/>
    <rect x="986" y="196" width="158" height="28" rx="12" fill="#e9f5f3"/>
    <rect x="986" y="244" width="124" height="18" rx="9" fill="#d59b4a"/>
    <rect x="986" y="282" width="145" height="18" rx="9" fill="#8fbdb7"/>
    <rect x="954" y="386" width="82" height="17" rx="8" fill="#ffffff"/>
    <rect x="928" y="403" width="134" height="18" rx="9" fill="#ffffff"/>
  </g>
  <g filter="url(#soft)">
    <rect x="1010" y="465" width="210" height="150" rx="26" fill="#ffffff"/>
    <path d="M1042 520a101 101 0 0 1 146 0M1073 549a58 58 0 0 1 84 0" fill="none" stroke="#2f7d75" stroke-width="15" stroke-linecap="round"/>
    <circle cx="1115" cy="581" r="13" fill="#d59b4a"/>
  </g>
  <g filter="url(#soft)">
    <rect x="650" y="486" width="260" height="104" rx="24" fill="#ffffff"/>
    <rect x="682" y="523" width="88" height="31" rx="15" fill="#e9f5f3"/>
    <rect x="790" y="523" width="88" height="31" rx="15" fill="#f8f3e8"/>
    <circle cx="727" cy="538" r="8" fill="#2f7d75"/>
    <circle cx="835" cy="538" r="8" fill="#d59b4a"/>
  </g>
  <g opacity=".72" fill="none" stroke="#2f7d75" stroke-width="5" stroke-linecap="round">
    <path d="M910 410c-55 52-93 90-130 127"/>
    <path d="M1039 411c23 31 45 62 66 95"/>
    <path d="M910 515c-61 3-121 6-180 14"/>
  </g>
  <circle cx="910" cy="410" r="10" fill="#d59b4a"/>
  <circle cx="1115" cy="505" r="10" fill="#d59b4a"/>
  <circle cx="780" cy="537" r="10" fill="#2f7d75"/>
</svg>
